<svg width="27px" height="23px" viewBox="0 0 27 23" version="1.1" xmlns="http://www.w3.org/2000/svg" xmlns:xlink="http://www.w3.org/1999/xlink">
    <!-- Generator: Sketch 45.1 (43504) - http://www.bohemiancoding.com/sketch -->
    <desc>Created with Sketch.</desc>
    <defs></defs>
    <g id="Dashboard" stroke="none" stroke-width="1" fill="none" fill-rule="evenodd">
        <g transform="translate(-532.000000, -178.000000)" id="Date-picker" fill-rule="nonzero" fill="#4A4A4A">
            <g transform="translate(532.000000, 166.000000)">
                <g id="Icon_Arrow" transform="translate(13.500000, 23.500000) scale(-1, 1) translate(-13.500000, -23.500000) translate(0.000000, 12.000000)">
                    <path d="M27.0000123,11.4926884 C26.9658327,11.0910963 26.8129023,10.6160858 26.5973134,10.35782 L19.2336832,1.27884842 C18.51579,0.473019211 17.3978673,0.400744737 16.6448127,0.994998158 C15.8916968,1.58924553 15.7547332,2.80582447 16.3572627,3.54858526 L21.3238514,9.67687474 L1.84089682,9.67687474 C0.824224091,9.67687474 -1.22727273e-05,10.4898884 -1.22727273e-05,11.4926884 C-1.22727273e-05,12.4955489 0.824224091,13.3084779 1.84089682,13.3084779 L21.3238514,13.3084779 L16.3572627,19.4367674 C15.7547332,20.1794858 15.9148309,21.3685858 16.6448127,21.9903121 C17.4379377,22.6658463 18.6312764,22.4493437 19.2336832,21.7065042 L26.5973134,12.6275568 C26.9089364,12.2513253 26.9945693,11.9750832 27.0000123,11.4926884 Z" id="Shape"></path>
                </g>
            </g>
        </g>
    </g>
</svg>
