
<svg width="27px" height="22px" viewBox="0 0 27 22" version="1.1" xmlns="http://www.w3.org/2000/svg" xmlns:xlink="http://www.w3.org/1999/xlink">
    <!-- Generator: Sketch 45.1 (43504) - http://www.bohemiancoding.com/sketch -->
    <desc>Created with Sketch.</desc>
    <defs></defs>
    <g id="Dashboard" stroke="none" stroke-width="1" fill="none" fill-rule="evenodd">
        <g transform="translate(-869.000000, -179.000000)" id="Date-picker" fill-rule="nonzero" fill="#4A4A4A">
            <g transform="translate(532.000000, 166.000000)">
                <g id="Icon_Arrow" transform="translate(337.000000, 13.000000)">
                    <path d="M27.0000245,10.8893057 C26.965845,10.4877136 26.8129145,10.012703 26.5973257,9.75443724 L19.2336955,0.675465666 C18.5158023,-0.130363545 17.3978795,-0.202638019 16.644825,0.391615402 C15.8917091,0.985862771 15.7547455,2.20244172 16.357275,2.94520251 L21.3238636,9.07349198 L1.84090909,9.07349198 C0.824236364,9.07349198 0,9.88650567 0,10.8893057 C0,11.8921662 0.824236364,12.7050951 1.84090909,12.7050951 L21.3238636,12.7050951 L16.357275,18.8333846 C15.7547455,19.576103 15.9148432,20.765203 16.644825,21.3869293 C17.43795,22.0624636 18.6312886,21.8459609 19.2336955,21.1031215 L26.5973257,12.0241741 C26.9089486,11.6479425 26.9945816,11.3717004 27.0000245,10.8893057 Z" id="Shape"></path>
                </g>
            </g>
        </g>
    </g>
</svg>
